<?xml version="1.0" encoding="utf-8"?>
<!-- Generator: Adobe Illustrator 19.0.1, SVG Export Plug-In . SVG Version: 6.00 Build 0)  -->
<svg version="1.1" id="Layer_1" xmlns="http://www.w3.org/2000/svg" xmlns:xlink="http://www.w3.org/1999/xlink" x="0px" y="0px"
	 viewBox="0 0 612 792" style="enable-background:new 0 0 612 792;" xml:space="preserve">
<g id="instagram">
	<path d="M5,0H2.5C1.1,0,0,1.1,0,2.5v35C0,38.9,1.1,40,2.5,40h35c1.4,0,2.5-1.1,2.5-2.5v-35C40,1.1,38.9,0,37.5,0H5L5,0z M20,15
		c2.8,0,5,2.2,5,5s-2.2,5-5,5s-5-2.2-5-5S17.2,15,20,15L20,15z M35,35H5V20h5c0,5.5,4.5,10,10,10s10-4.5,10-10h5V35L35,35z M27.5,5
		H35v7.5h-7.5V5z"/>
</g>
</svg>
