<?xml version="1.0" encoding="utf-8"?>
<!-- Generator: Adobe Illustrator 19.2.1, SVG Export Plug-In . SVG Version: 6.00 Build 0)  -->
<svg version="1.1" id="Layer_1" xmlns:sketch="http://www.bohemiancoding.com/sketch/ns"
	 xmlns="http://www.w3.org/2000/svg" xmlns:xlink="http://www.w3.org/1999/xlink" x="0px" y="0px" viewBox="0 0 96 83"
	 style="enable-background:new 0 0 96 83;" xml:space="preserve">
<style type="text/css">
	.st0{fill:#FFFFFF;}
</style>
<title>medium</title>
<desc>Created with Sketch.</desc>
<g id="Page-1_1_" sketch:type="MSPage">
	<g id="medium_1_" transform="translate(-32.000000, -38.000000)" sketch:type="MSLayerGroup">
		<g id="Page-1" sketch:type="MSBitmapLayer">
			<g id="Artboard">
				<g id="Group">
					<g id="medium">
						<g>
							<path class="st0" d="M64.4,86.7c0,10.2,0,20.4,0,30.6c0,0.6,0,1.2-0.1,1.7c-0.3,1-1,1.5-2,1.1c-0.4-0.1-0.9-0.4-1.3-0.6
								c-8.4-4.2-16.8-8.5-25.3-12.6c-2-1-2.9-2.3-2.9-4.6c0.1-20.3,0-40.7,0-61c0-2.5,0.5-2.8,2.8-1.7c9.1,4.5,18.1,9.1,27.2,13.6
								c1.1,0.6,1.6,1.2,1.6,2.5C64.4,66.2,64.4,76.5,64.4,86.7z"/>
							<path class="st0" d="M97.7,102.7c-0.3-0.5-0.7-0.9-0.9-1.4c-6.3-10.3-12.6-20.6-19-30.9c-0.6-0.9-0.5-1.5,0-2.4
								c5.8-9.3,11.5-18.6,17.2-28c0.8-1.3,1.5-1.6,2.9-0.9c9.4,4.7,18.8,9.4,28.2,14.1c1,0.5,1.5,0.9,0.7,2.1
								c-9.6,15.5-19.1,31-28.6,46.5C98.1,102.2,97.9,102.4,97.7,102.7z"/>
							<path class="st0" d="M127.6,60.2c0,0.5,0,1,0,1.5c0,18.5,0,37,0,55.4c0,0.5,0,1.1,0,1.6c-0.2,1.3-1,1.8-2.3,1.4
								c-0.2-0.1-0.5-0.2-0.7-0.3c-8.4-4.2-16.8-8.4-25.2-12.6c-0.2-0.1-0.4-0.2-0.7-0.4c9.6-15.6,19.1-31.1,28.6-46.6
								C127.4,60.2,127.5,60.2,127.6,60.2z"/>
							<path class="st0" d="M67.4,59.1c9.5,15.5,18.9,30.7,28.4,46.2c-0.6-0.2-1-0.3-1.3-0.5c-8.7-4.4-17.4-8.7-26.1-13.1
								c-0.7-0.4-1.1-0.7-1.1-1.6c0-10.1,0-20.1,0-30.2C67.3,59.8,67.4,59.7,67.4,59.1z"/>
						</g>
					</g>
				</g>
			</g>
		</g>
	</g>
</g>
</svg>
