<?xml version="1.0" encoding="utf-8"?>
<!-- Generator: Adobe Illustrator 17.1.0, SVG Export Plug-In . SVG Version: 6.00 Build 0)  -->
<!DOCTYPE svg PUBLIC "-//W3C//DTD SVG 1.1//EN" "http://www.w3.org/Graphics/SVG/1.1/DTD/svg11.dtd" [
	<!ENTITY ns_flows "http://ns.adobe.com/Flows/1.0/">
	<!ENTITY ns_extend "http://ns.adobe.com/Extensibility/1.0/">
	<!ENTITY ns_ai "http://ns.adobe.com/AdobeIllustrator/10.0/">
	<!ENTITY ns_graphs "http://ns.adobe.com/Graphs/1.0/">
	<!ENTITY ns_vars "http://ns.adobe.com/Variables/1.0/">
	<!ENTITY ns_imrep "http://ns.adobe.com/ImageReplacement/1.0/">
	<!ENTITY ns_sfw "http://ns.adobe.com/SaveForWeb/1.0/">
	<!ENTITY ns_custom "http://ns.adobe.com/GenericCustomNamespace/1.0/">
	<!ENTITY ns_adobe_xpath "http://ns.adobe.com/XPath/1.0/">
]>
<svg version="1.1" id="Layer_1" xmlns:x="&ns_extend;" xmlns:i="&ns_ai;" xmlns:graph="&ns_graphs;"
	 xmlns="http://www.w3.org/2000/svg" xmlns:xlink="http://www.w3.org/1999/xlink" xmlns:a="http://ns.adobe.com/AdobeSVGViewerExtensions/3.0/"
	 x="0px" y="0px" viewBox="0 0 80.5 51.9" enable-background="new 0 0 80.5 51.9" xml:space="preserve">
<metadata>
	<sfw  xmlns="&ns_sfw;">
		<slices></slices>
		<sliceSourceBounds  y="1084.1" x="0" bottomLeftOrigin="true" width="80.5" height="51.9"></sliceSourceBounds>
		<optimizationSettings></optimizationSettings>
	</sfw>
</metadata>
<g>
	<path fill="#FFFFFF" d="M62.1,2c3.2,0,6.3,0,9.5,0c0.8,0,1.1,0.2,1,1c-0.1,1.2,0,2.5,0,3.7c0,0.6-0.2,0.8-0.8,0.8
		c-6.6,0-13.1,0-19.7,0c-0.6,0-0.8-0.2-0.8-0.8c0-1.3,0.1-2.6,0-3.9c0-0.7,0.2-0.9,0.9-0.9C55.5,2.1,58.8,2,62.1,2z"/>
	<path fill="#FFFFFF" d="M42.4,33.9c-0.6-4.8-3.1-7.9-7.5-9.9c1.6-0.8,2.9-1.9,4-3.3c2.1-2.8,2.3-6.1,1.9-9.3
		c-0.3-2.6-1.3-4.9-3.1-6.9c-2.8-3-6.5-4.3-10.4-4.4C18.5-0.1,9.7,0.1,1,0c-0.9,0-1,0.3-1,1c0,16.6,0,33.2,0,49.8c0,0.8,0.2,1,1,1
		c5.8,0,11.5,0,17.3,0c3.9,0,7.7,0.3,11.6-0.4c4.8-0.9,8.4-3.3,10.7-7.6C42.3,40.7,42.9,37.4,42.4,33.9z M12,19.3
		c0.1-3.1,0-6.1,0-9.2c0-0.7,0.2-0.9,0.9-0.9c1.8,0,3.6,0,5.8,0c2.4,0.1,5.2-0.1,8,0.4c2.7,0.5,4.2,3.5,3.6,5.9
		c-0.8,3.1-2.6,4.4-5.9,4.7c-3.8,0.3-7.5,0-11.3,0.2C12.1,20.5,11.9,20.2,12,19.3z M31.4,36.7c-0.3,2-1.1,3.8-3,4.9
		c-1.2,0.6-2.4,1-3.8,1.1c-1.9,0-3.8,0-5.7,0c-2,0-4.1,0-6.1,0c-0.6,0-0.8-0.2-0.8-0.8c0-3.9,0-7.9,0-11.8c0-0.6,0.1-0.8,0.8-0.8
		c3.9,0,7.7,0,11.6,0c1.4,0,2.9,0.3,4.2,1C31.2,31.7,31.7,34.4,31.4,36.7z"/>
	<path fill="#FFFFFF" d="M54.5,34.4c4.1,0,8.3,0,12.4,0c4.1,0,8.3,0,12.4,0c0.9,0,1.1-0.2,1.1-1.1c0-2.3-0.1-4.6-0.5-6.8
		c-1-5.7-3.9-10.1-9.1-12.7c-2-1-4.2-1.3-6.5-1.6c-2.8-0.4-5.5-0.1-8.2,0.6c-3.3,0.9-6.2,2.6-8.4,5.2c-3.2,3.8-4.1,8.5-4.4,13.3
		c-0.1,2,0.2,3.9,0.5,5.8c0.6,3.9,2.1,7.3,5.2,9.9c3.4,2.8,7.3,4.2,11.5,4.6c2.7,0.2,5.4,0.1,8-0.8c5.5-1.7,9.6-4.9,11.2-10.8
		c0.2-0.9,0.1-0.9-0.6-0.9c-2.9,0-5.7,0-8.6,0c-0.6,0-1,0.2-1.2,0.8c-0.4,1-1.3,1.6-2.1,2.2c-1.7,1.3-3.8,1.3-5.8,1.3
		c-4.3-0.2-7.8-3.5-8-8.1C53.5,34.5,53.8,34.4,54.5,34.4z M53.8,27c0.7-2.2,1.5-4.4,3.6-5.6c4.7-2.7,11.4-0.7,12.5,5.4
		c0.1,0.7,0,1.2-1,1.2c-2.4-0.1-4.8,0-7.2,0c-2.4,0-4.8,0-7.2,0C53.8,28,53.7,27.6,53.8,27z"/>
</g>
</svg>
