<?xml version="1.0" encoding="utf-8"?>
<!-- Generator: Adobe Illustrator 17.1.0, SVG Export Plug-In . SVG Version: 6.00 Build 0)  -->
<!DOCTYPE svg PUBLIC "-//W3C//DTD SVG 1.1//EN" "http://www.w3.org/Graphics/SVG/1.1/DTD/svg11.dtd" [
	<!ENTITY ns_flows "http://ns.adobe.com/Flows/1.0/">
	<!ENTITY ns_extend "http://ns.adobe.com/Extensibility/1.0/">
	<!ENTITY ns_ai "http://ns.adobe.com/AdobeIllustrator/10.0/">
	<!ENTITY ns_graphs "http://ns.adobe.com/Graphs/1.0/">
]>
<svg version="1.1" id="Layer_1" xmlns:x="&ns_extend;" xmlns:i="&ns_ai;" xmlns:graph="&ns_graphs;"
	 xmlns="http://www.w3.org/2000/svg" xmlns:xlink="http://www.w3.org/1999/xlink" xmlns:a="http://ns.adobe.com/AdobeSVGViewerExtensions/3.0/"
	 x="0px" y="0px" viewBox="1.3 2.6 52 33.2" enable-background="new 1.3 2.6 52 33.2" xml:space="preserve">
<path fill="#565656" d="M3.4,33.7c1.4,1.4,3.2,2.2,5.2,2.2c2,0,3.8-0.8,5.2-2.1l13.5-13.5l13.5,13.5c1.4,1.4,3.2,2.1,5.2,2.1
	c2,0,3.8-0.8,5.2-2.1c2.9-2.9,2.9-7.5,0-10.4L32.6,4.8c-1.4-1.4-3.2-2.1-5.2-2.1h-0.2c-2,0-3.8,0.8-5.2,2.1L3.5,23.4
	c-1.4,1.4-2.2,3.2-2.2,5.2S2.1,32.3,3.4,33.7z"/>
</svg>
