<svg width="2389" height="855" viewBox="0 0 2389 855" fill="none" xmlns="http://www.w3.org/2000/svg">
<line x1="52.0607" y1="55.9393" x2="144.239" y2="148.118" stroke="black" stroke-width="3"/>
<line y1="-1.5" x2="130.36" y2="-1.5" transform="matrix(0.707107 -0.707107 -0.707107 -0.707107 51 143)" stroke="black" stroke-width="3"/>
<line x1="460" y1="102.5" x2="360" y2="102.5" stroke="black" stroke-width="3"/>
<line x1="413.5" y1="153" x2="413.5" y2="54" stroke="black" stroke-width="3"/>
<line x1="773.438" y1="145.559" x2="735.438" y2="107.559" stroke="black" stroke-width="3"/>
<circle cx="706.5" cy="82" r="30.5" stroke="black" stroke-width="3"/>
<line x1="986.561" y1="77.9393" x2="1033.56" y2="124.939" stroke="black" stroke-width="3"/>
<line x1="1033.44" y1="126.939" x2="1082.44" y2="77.9393" stroke="black" stroke-width="3"/>
<line y1="-1.5" x2="66.468" y2="-1.5" transform="matrix(0.707107 -0.707107 -0.707107 -0.707107 1295.5 121)" stroke="black" stroke-width="3"/>
<line y1="-1.5" x2="69.2965" y2="-1.5" transform="matrix(0.707107 0.707107 0.707107 -0.707107 1344.5 72)" stroke="black" stroke-width="3"/>
<line x1="1654.56" y1="51.5607" x2="1607.56" y2="98.5607" stroke="black" stroke-width="3"/>
<line x1="1605.56" y1="98.4393" x2="1654.56" y2="147.439" stroke="black" stroke-width="3"/>
<line x1="1705" y1="96.5" x2="1613" y2="96.5" stroke="black" stroke-width="3"/>
<line x1="1916.56" y1="100.439" x2="1963.56" y2="147.439" stroke="black" stroke-width="3"/>
<line x1="1963.44" y1="149.439" x2="2012.44" y2="100.439" stroke="black" stroke-width="3"/>
<line x1="1961.5" y1="50" x2="1961.5" y2="142" stroke="black" stroke-width="3"/>
<line x1="2325" y1="68.5" x2="2225" y2="68.5" stroke="black" stroke-width="3"/>
<line x1="2293" y1="95.5" x2="2225" y2="95.5" stroke="black" stroke-width="3"/>
<line x1="2325" y1="122.5" x2="2225" y2="122.5" stroke="black" stroke-width="3"/>
<line x1="53.8284" y1="381.672" x2="146.007" y2="473.85" stroke="black" stroke-width="8"/>
<line y1="-4" x2="130.36" y2="-4" transform="matrix(0.707107 -0.707107 -0.707107 -0.707107 51 470.5)" stroke="black" stroke-width="8"/>
<line x1="462.069" y1="429.235" x2="362.069" y2="429.235" stroke="black" stroke-width="8"/>
<line x1="412.821" y1="477.5" x2="412.821" y2="378.5" stroke="black" stroke-width="8"/>
<line x1="780.535" y1="474.827" x2="742.535" y2="436.827" stroke="black" stroke-width="8"/>
<circle cx="715.365" cy="409.5" r="28" stroke="black" stroke-width="8"/>
<line x1="997.193" y1="403.672" x2="1044.19" y2="450.672" stroke="black" stroke-width="8"/>
<line x1="1040.54" y1="452.672" x2="1089.54" y2="403.672" stroke="black" stroke-width="8"/>
<line y1="-4" x2="66.468" y2="-4" transform="matrix(0.707107 -0.707107 -0.707107 -0.707107 1304.36 448.5)" stroke="black" stroke-width="8"/>
<line y1="-4" x2="69.2965" y2="-4" transform="matrix(0.707107 0.707107 0.707107 -0.707107 1353.36 399.5)" stroke="black" stroke-width="8"/>
<line x1="1665.19" y1="380.828" x2="1618.19" y2="427.828" stroke="black" stroke-width="8"/>
<line x1="1616.19" y1="424.172" x2="1665.19" y2="473.172" stroke="black" stroke-width="8"/>
<line x1="1713.86" y1="426.5" x2="1621.86" y2="426.5" stroke="black" stroke-width="8"/>
<line x1="1927.19" y1="426.172" x2="1974.19" y2="473.172" stroke="black" stroke-width="8"/>
<line x1="1970.54" y1="475.172" x2="2019.54" y2="426.172" stroke="black" stroke-width="8"/>
<line x1="1972.86" y1="377.5" x2="1972.86" y2="469.5" stroke="black" stroke-width="8"/>
<line x1="2333.87" y1="398.5" x2="2233.87" y2="398.5" stroke="black" stroke-width="8"/>
<line x1="2301.86" y1="425.5" x2="2233.86" y2="425.5" stroke="black" stroke-width="8"/>
<line x1="2333.87" y1="452.5" x2="2233.87" y2="452.5" stroke="black" stroke-width="8"/>
<line x1="56.9497" y1="705.728" x2="149.128" y2="797.907" stroke="black" stroke-width="14"/>
<line y1="-7" x2="130.36" y2="-7" transform="matrix(0.707107 -0.707107 -0.707107 -0.707107 50 793.678)" stroke="black" stroke-width="14"/>
<line x1="464.344" y1="754.597" x2="364.344" y2="754.597" stroke="black" stroke-width="14"/>
<line x1="413.91" y1="804.06" x2="413.91" y2="705.06" stroke="black" stroke-width="14"/>
<line x1="782.688" y1="797.948" x2="744.688" y2="759.948" stroke="black" stroke-width="14"/>
<circle cx="719.639" cy="733.5" r="25" stroke="black" stroke-width="14"/>
<line x1="1003.59" y1="728.55" x2="1050.59" y2="775.55" stroke="black" stroke-width="14"/>
<line x1="1042.69" y1="777.55" x2="1091.69" y2="728.55" stroke="black" stroke-width="14"/>
<line y1="-7" x2="66.468" y2="-7" transform="matrix(0.707107 -0.707107 -0.707107 -0.707107 1308.64 769.5)" stroke="black" stroke-width="14"/>
<line y1="-7" x2="69.2965" y2="-7" transform="matrix(0.707107 0.707107 0.707107 -0.707107 1357.64 720.5)" stroke="black" stroke-width="14"/>
<line x1="1671.59" y1="706.95" x2="1624.59" y2="753.95" stroke="black" stroke-width="14"/>
<line x1="1622.59" y1="746.05" x2="1671.59" y2="795.05" stroke="black" stroke-width="14"/>
<line x1="1718.14" y1="750.5" x2="1626.14" y2="750.5" stroke="black" stroke-width="14"/>
<line x1="1933.59" y1="748.05" x2="1980.59" y2="795.05" stroke="black" stroke-width="14"/>
<line x1="1972.69" y1="797.05" x2="2021.69" y2="748.05" stroke="black" stroke-width="14"/>
<line x1="1978.14" y1="701.5" x2="1978.14" y2="793.5" stroke="black" stroke-width="14"/>
<line x1="2338.14" y1="725.5" x2="2238.14" y2="725.5" stroke="black" stroke-width="14"/>
<line x1="2306.14" y1="752.5" x2="2238.14" y2="752.5" stroke="black" stroke-width="14"/>
<line x1="2338.14" y1="779.5" x2="2238.14" y2="779.5" stroke="black" stroke-width="14"/>
</svg>
