<svg xmlns="http://www.w3.org/2000/svg" width="24px" height="24px" viewBox="0 0 192 192" fill="#000000">
    <path fill="none" d="M0 0h192v192H0z"/>
    <path d="M96 8C47.4 8 8 47.4 8 96s39.4 88 88 88 88-39.4 88-88S144.6 8 96 8zm0 148c-33.14 0-60-26.86-60-60s26.86-60 60-60c16.18 0 29.75 5.95 40.14 15.64l-17.2 17.2c-6.23-5.93-14.13-8.97-22.95-8.97-19.58 0-35.45 16.56-35.45 36.14S76.42 132.14 96 132.14c17.77 0 29.88-10.19 32.33-24.16H96V85h56.51c.7 3.95 1.1 8.07 1.1 12.36 0 34.28-22.96 58.64-57.61 58.64z"/>
    <circle fill="none" cx="96" cy="96" r="88"/>
</svg>
