<?xml version="1.0" encoding="UTF-8" standalone="no"?>
<svg width="156px" height="167px" viewBox="0 0 156 167" version="1.1" xmlns="http://www.w3.org/2000/svg" xmlns:xlink="http://www.w3.org/1999/xlink">
    <!-- Generator: Sketch 3.8.3 (29802) - http://www.bohemiancoding.com/sketch -->
    <title>Bitmap</title>
    <desc>Created with Sketch.</desc>
    <defs>
        <rect id="path-1" x="0" y="0" width="184" height="189"></rect>
    </defs>
    <g id="Page-1" stroke="none" stroke-width="1" fill="none" fill-rule="evenodd">
        <g id="Bitmap" transform="translate(-14.000000, 0.000000)">
            <mask id="mask-2" fill="white">
                <use xlink:href="#path-1"></use>
            </mask>
            <g id="Mask"></g>
            <g id="Group-4" mask="url(#mask-2)">
                <g transform="translate(19.000000, 5.000000)" id="Group-5">
                    <g>
                        <path d="M73,157 C113.316787,157 146,113.201973 146,72.9260355 C146,32.6500982 113.316787,0 73,0 C32.6832133,0 0,32.6500982 0,72.9260355 C0,113.201973 32.6832133,157 73,157 Z" id="Oval-3" stroke="#819F13" stroke-width="9.31200064"></path>
                        <path d="M130.070023,93.3365336 C131.959729,86.9450975 132.980892,80.375219 132.980892,73.9154967 C132.980892,63.0663251 130.100441,52.8899155 125.062576,44.1093002 L76.7905673,89.1303521 L78.2140173,114.904244 L130.070023,93.3365336 Z M130.017977,93.5117848 C122.84126,117.570651 103.364881,139.061057 79.7417418,142.566193 L78.608812,122.052646 L130.017977,93.5117848 Z M17.208219,97.2644817 C14.5047515,89.6588487 13.0191083,81.7070421 13.0191083,73.9154967 C13.0191083,65.6884525 14.6754692,57.8482701 17.672907,50.7102319 L69.3163408,88.7113341 L68.2253245,114.687542 L17.208219,97.2644817 Z M17.4583767,97.9577764 C25.6888256,120.432779 44.5425992,139.732369 67.049764,142.676681 L67.9982123,120.094899 L17.4583767,97.9577764 Z M125.01664,44.0293796 C118.883511,33.3778051 109.572713,24.7874338 98.3786978,19.5527096 L74.7463279,52.1160548 L76.1841017,78.1493002 L125.01664,44.0293796 Z M17.9313913,50.1040893 C23.1744018,37.9951932 32.2943814,27.9558344 43.7259436,21.5513913 L70.8964855,51.0893754 L69.6906403,79.7995682 L17.9313913,50.1040893 Z M97.9036088,19.3330744 C90.3183271,15.8666651 81.8847573,13.9349112 73,13.9349112 C72.8791511,13.9349112 72.7583856,13.9352686 72.6377047,13.9359824 L74.2824546,43.7168694 L97.9036088,19.3330744 Z M44.0464829,21.3730994 C52.4824443,16.7145877 62.1599277,14.0286489 72.4568941,13.937319 L71.1786607,44.3710157 L44.0464829,21.3730994 Z" id="Combined-Shape" fill="#819F13"></path>
                    </g>
                </g>
            </g>
        </g>
    </g>
</svg>