<?xml version="1.0" encoding="UTF-8" standalone="no"?>
<svg width="1048px" height="1048px" viewBox="0 0 1048 1048" version="1.1" xmlns="http://www.w3.org/2000/svg" xmlns:xlink="http://www.w3.org/1999/xlink">
    <!-- Generator: Sketch 41 (35326) - http://www.bohemiancoding.com/sketch -->
    <title>Page 1</title>
    <desc>Created with Sketch.</desc>
    <defs>
        <polygon id="path-1" points="1047.04727 523.523429 1047.04727 0 0 0 0 523.523429 0 1047.04686 1047.04727 1047.04686"></polygon>
    </defs>
    <g id="Page-1" stroke="none" stroke-width="1" fill="none" fill-rule="evenodd">
        <g>
            <mask id="mask-2" fill="white">
                <use xlink:href="#path-1"></use>
            </mask>
            <g id="Clip-2"></g>
            <path d="M855.994387,653.883238 C793.893138,676.883317 736.934545,708.25704 681.255921,742.105783 C625.43853,776.037372 571.586656,812.707017 523.146688,857.50591 C412.4957,781.00191 301.749439,704.433704 189.808126,627.03704 C191.150229,626.341135 192.105028,625.935191 192.966625,625.384266 C232.492379,600.052076 274.932237,582.105594 321.804348,576.393372 C368.722024,570.674938 411.996553,580.367902 451.224063,607.837515 C500.999921,642.694906 551.363984,676.713483 601.382166,711.224993 C604.74985,713.548819 607.123383,713.575744 610.27981,711.127649 C614.059652,708.196977 618.226798,705.76338 622.228253,703.118526 C628.273929,699.123285 628.296711,698.980376 622.532711,694.933357 C607.26215,684.213104 591.981233,673.50942 576.696174,662.809878 C449.600285,573.86036 322.502324,484.912914 195.410577,395.955111 C194.13268,395.062447 192.933486,394.057942 192.206514,393.496661 C313.198735,342.502969 424.529059,275.894906 524.608917,189.540534 C634.715194,265.624092 745.498735,342.175728 857.237075,419.38806 C849.8203,423.919728 843.105644,428.310558 836.130024,432.23538 C805.276158,449.589515 772.77366,462.596313 737.729866,468.588139 C687.088269,477.24553 639.996617,469.346179 597.123889,439.492677 C547.10985,404.668424 496.619447,370.531791 446.431431,335.954005 C442.815209,333.464487 440.180711,333.006764 436.543779,335.744819 C431.241644,339.737989 425.537708,343.194732 418.932822,347.593847 C565.248949,450.130084 710.361739,551.823364 855.994387,653.883238 M523.523636,-0.000414229249 C234.389549,-0.000414229249 0,234.389135 0,523.523222 C0,812.657309 234.389549,1047.04686 523.523636,1047.04686 C812.657723,1047.04686 1047.04727,812.657309 1047.04727,523.523222 C1047.04727,234.389135 812.657723,-0.000414229249 523.523636,-0.000414229249" id="Fill-1" fill="#000000" mask="url(#mask-2)"></path>
        </g>
    </g>
</svg>