<?xml version="1.0" encoding="UTF-8" standalone="no"?>
<svg width="1078px" height="1078px" viewBox="0 0 1078 1078" version="1.1" xmlns="http://www.w3.org/2000/svg" xmlns:xlink="http://www.w3.org/1999/xlink">
    <!-- Generator: Sketch 41 (35326) - http://www.bohemiancoding.com/sketch -->
    <title>Page 1</title>
    <desc>Created with Sketch.</desc>
    <defs></defs>
    <g id="Page-1" stroke="none" stroke-width="1" fill="none" fill-rule="evenodd">
        <g transform="translate(0.000000, -1.000000)" fill="#000000">
            <path d="M791.784822,485.865278 C773.720865,485.722556 760.812561,494.134627 753.688387,510.679716 C749.655474,520.050367 747.855257,530.028118 748.639257,538.821491 C748.882126,573.72232 764.545083,592.646817 791.733691,592.393325 C818.428039,592.141964 834.146387,572.469775 834.1123,539.351905 C834.080343,506.461964 818.044561,486.071905 791.784822,485.865278" id="Fill-1"></path>
            <path d="M387.295148,497.901846 C381.898757,503.972852 375.294409,511.51368 378.43467,519.224923 C381.127539,525.836994 390.456713,521.506343 396.796887,522.051669 C403.507757,522.628947 410.305974,522.181609 417.065843,522.175219 C426.531365,522.170959 436.024583,521.70445 445.451757,522.290249 C456.864496,522.999598 457.663409,518.304686 454.178017,509.017112 C444.073365,482.093799 407.018713,475.709657 387.295148,497.901846" id="Fill-3"></path>
            <g id="Group-7" transform="translate(0.000000, 0.150296)">
                <path d="M905.192339,626.830509 C891.127209,625.303172 883.615296,616.848497 882.85047,602.290864 C884.533513,588.314769 892.627035,579.791929 906.687904,579.885657 C920.870209,579.981515 929.068122,588.930391 929.916035,603.053467 C930.717078,616.377728 918.33073,628.257728 905.192339,626.830509 M791.951209,627.633586 C738.690339,627.906249 701.21173,591.827432 700.904948,539.983172 C700.596035,488.266722 738.185426,450.705302 790.542991,450.413467 C843.028383,450.119503 881.103513,486.963053 881.663817,538.587905 C882.226252,590.317136 844.901035,627.365183 791.951209,627.633586 M684.372774,612.705302 C684.462252,620.337728 682.046339,624.186959 673.974122,623.349799 C671.296165,623.072876 668.564948,623.36045 665.861426,623.317846 C632.321991,622.798083 638.089078,627.533467 637.611861,596.00258 C637.251817,572.336308 638.093339,548.640213 637.26247,524.997373 C636.376209,499.76329 626.378078,488.424355 606.439339,487.604237 C585.333122,486.732994 569.452861,499.40755 567.522687,523.16755 C565.338991,550.050391 565.0386,577.314533 566.847339,604.216544 C568.17247,623.901515 558.61747,624.32116 544.177383,623.554296 C530.938861,622.851337 517.95173,627.184118 518.950904,604.478556 C520.881078,560.60329 520.131165,516.570391 519.168209,472.631219 C518.846513,457.975598 523.744383,452.805657 537.49847,455.295834 C549.639817,457.496308 570.731122,445.703645 565.317687,479.771574 C584.485209,457.636899 603.705991,449.329207 626.561296,450.588142 C659.774774,452.420095 681.594687,472.090154 683.32247,505.205893 C685.18873,540.958793 683.955209,576.867195 684.372774,612.705302 M503.187817,541.265538 C502.310078,549.696781 498.873687,551.060095 491.819817,550.951456 C474.23947,550.680923 456.65273,550.861988 439.068122,550.864118 C422.160991,550.866249 405.215513,551.550036 388.355252,550.655361 C374.392383,549.914059 374.03447,555.382225 378.6426,566.00542 C389.831643,591.793349 424.964643,601.15974 449.509383,584.548615 C459.143209,578.030272 481.463774,581.442817 487.906209,590.332047 C492.857339,597.165657 486.225296,600.258675 483.023252,603.44542 C457.325948,629.011811 425.904165,631.957846 392.6566,624.346722 C360.088643,616.891101 338.771513,596.449917 331.223383,563.858201 C315.451774,495.760686 368.770165,440.269562 437.544861,452.420095 C479.67847,459.862935 507.6596,498.276426 503.187817,541.265538 M312.976209,474.354533 C311.1206,517.569444 311.866252,560.933467 312.756774,604.210154 C313.055035,618.752876 309.968035,626.274533 294.01747,623.415834 C290.740861,622.827905 287.195817,622.88116 283.897904,623.409444 C269.302296,625.741988 261.703035,621.072639 266.53273,600.520686 C253.066252,612.228142 243.781817,620.589089 231.173904,624.56826 C186.80973,638.563527 149.258687,613.506249 147.680035,567.20471 C146.574339,534.770627 147.833426,502.259858 147.081383,469.804473 C146.815078,458.352639 150.187557,453.412757 161.7686,455.214888 C163.08947,455.419385 164.469991,455.217018 165.822817,455.24045 C198.66347,455.836899 193.676122,450.654178 194.119252,482.653704 C194.440948,505.64897 193.833774,528.665538 194.466513,551.650154 C195.199383,578.202817 205.1336,590.280923 225.428122,591.039266 C246.954035,591.844473 262.974904,577.740568 264.51947,553.134888 C266.170557,526.852757 266.669078,500.287314 264.758078,474.056308 C263.292339,453.906959 273.865687,454.597136 287.728426,455.040213 C301.22047,455.472639 313.934904,451.974888 312.976209,474.354533 M538.510426,0.980094675 C241.0996,0.980094675 0.000426086957,242.050154 0.000426086957,539.425065 C0.000426086957,836.799976 241.0996,1077.87004 538.510426,1077.87004 C835.919122,1077.87004 1077.0183,836.799976 1077.0183,539.425065 C1077.0183,242.050154 835.919122,0.980094675 538.510426,0.980094675" id="Fill-5"></path>
            </g>
        </g>
    </g>
</svg>